<svg xmlns="http://www.w3.org/2000/svg" width="320" height="320" viewBox="0 0 316 316">
  <defs>
    <linearGradient id="eronGrad" x1="0" y1="0" x2="316" y2="316" gradientUnits="userSpaceOnUse">
      <stop offset="0" stop-color="#4ba792"/>
      <stop offset="1" stop-color="#55e496"/>
    </linearGradient>
    <mask id="eCutout" maskUnits="userSpaceOnUse" maskContentUnits="userSpaceOnUse">
      <rect width="316" height="316" fill="#ffffff"/>
      <g transform="translate(30 30)">
        <path
          d="M0 0 C0.65548828 0.21430664 1.31097656 0.42861328 1.98632812 0.64941406 C25.73436792 8.62346261 44.63655411 26.96333234 56 49 C66.46431539 70.4180531 66 90.60863202 66 115 C14.19 115 -37.62 115 -91 115 C-87.8355224 131.87721387 -84.2955925 145.212308 -70.375 155.625 C-60.92546751 161.89656472 -51.31661099 164.63167836 -40.2734375 166.421875 C-37 167 -37 167 -35 168 C-35 181.53 -35 195.06 -35 209 C-52.54746759 209 -52.54746759 209 -60 207.375 C-60.84248291 207.19751221 -61.68496582 207.02002441 -62.55297852 206.8371582 C-79.90773541 202.96025914 -95.78612273 194.89856023 -109 183 C-109.76957031 182.32453125 -110.53914063 181.6490625 -111.33203125 180.953125 C-129.45582881 164.06720503 -139.04990709 138.55638812 -140.12548828 114.15283203 C-141.09943347 82.59015597 -135.96252705 52.0261202 -114 28 C-113.25234375 27.15953125 -112.5046875 26.3190625 -111.734375 25.453125 C-84.73600834 -3.33321296 -36.90869543 -12.22695466 0 0 Z M-79.44140625 56.05859375 C-85.19799424 63.22908054 -90 71.63954697 -90 81 C-55.02 81 -20.04 81 16 81 C16 70.1193782 13.06021051 63.14901406 6 55 C5.47535156 54.39285156 4.95070313 53.78570312 4.41015625 53.16015625 C-4.09203259 44.01780261 -16.51886744 37.90771873 -29 37 C-29.69996094 36.9484375 -30.39992187 36.896875 -31.12109375 36.84375 C-48.78180553 36.14776136 -67.28092821 43.02326118 -79.44140625 56.05859375 Z"
          transform="translate(165.317559 29.613477)"
          fill="#000000"
        />
      </g>
    </mask>
  </defs>

  <circle cx="158" cy="158" r="158" fill="url(#eronGrad)" mask="url(#eCutout)"/>
</svg>